# xmcd CD database file
#
# Track frame offsets:
#	150
#	13916
#	25397
#	36182
#	48565
#	58925
#	70325
#	84406
#	96046
#	105774
#	117785
#	130596
#	142898
#	157509
#	170998
#	183517
#	195215
#	207763
#	218576
#	231153
#
# Disc length: 3239 seconds
#
# Revision: 1
# Processed by: cddbd v1.5.2PL0 Copyright (c) Steve Scherf et al.
# Submitted via: CDex 1.83
#
DISCID=060ca514
DTITLE=Sammy Davis Jr. - The Rat Pack CD 01
DYEAR=1900
DGENRE=Jazz
TTITLE0=Inka Dinka
TTITLE1=Laura
TTITLE2=Azure
TTITLE3=Here Lies Love
TTITLE4=Wagon Wheels
TTITLE5=Yours Is My Heart Alone
TTITLE6=Dedicated To You
TTITLE7=Smile, Darn Ya, Smile
TTITLE8=We're Gonna Roll
TTITLE9=Got A Great Big Shovel
TTITLE10=What Can I Do
TTITLE11=I Don't Care Who Knows
TTITLE12=The Way You Look Tonight
TTITLE13=Dreamy Blues
TTITLE14=Can't You See I've Got The Blues
TTITLE15=You Are My Lucky Star
TTITLE16=I'm Sorry Dear
TTITLE17=I Ain't Got Nobody
TTITLE18=Be/Bop The Beguine
TTITLE19=When I'm Gone
EXTD=
EXTT0=
EXTT1=
EXTT2=
EXTT3=
EXTT4=
EXTT5=
EXTT6=
EXTT7=
EXTT8=
EXTT9=
EXTT10=
EXTT11=
EXTT12=
EXTT13=
EXTT14=
EXTT15=
EXTT16=
EXTT17=
EXTT18=
EXTT19=
PLAYORDER=
